<svg xmlns="http://www.w3.org/2000/svg" width="512" height="512" viewBox="0 0 164.57303 164.57303" role="img" aria-labelledby="title">
  <title id="title">Synclab</title>
  <g transform="translate(0 3.03744)">
    <path style="fill:#01e0fa;fill-opacity:0.992157;stroke:#fdfafa;stroke-width:2;stroke-linecap:round;stroke-dasharray:none;stroke-opacity:1;paint-order:fill markers stroke" d="m 85.294135,157.08085 c -10.35585,-0.9993 -19.59657,-2.98431 -37.30624,-8.01379 c -4.58391,-1.30182 -10.59656,-2.98248 -13.36146,-3.73482 c -2.7649,-0.75233 -5.7744,-1.58588 -6.68779,-1.85233 l -1.66071,-0.48444 l -0.75421,1.09574 c -1.07659,1.5641 -3.1803,3.4561 -4.69794,4.22515 c -2.41747,1.22502 -4.15948,1.57846 -7.08275,1.43703 c -3.164911,-0.15313 -4.6813505,-0.66945 -7.1591502,-2.43758 c -3.03032,-2.16238 -4.86631,-5.27411 -5.45762,-9.24983 c -0.80706004,-5.42625 2.42301,-11.3819 7.4701797,-13.77367 c 4.0796005,-1.93325 7.7785905,-1.91922 11.8747805,0.045 c 1.83387,0.87939 4.72764,3.76822 5.58067,5.57114 c 0.63528,1.34268 0.64277,1.34798 2.70765,1.9147 c 7.20285,1.97688 20.23074,4.2629 30.47314,5.34716 c 4.28753,0.45388 20.99574,0.45638 24.87083,0.004 c 15.184459,-1.77372 26.845535,-6.15862 36.644795,-13.77949 c 7.13465,-5.5486 12.71209,-13.42195 14.73856,-20.80554 c 0.64346,-2.34451 0.72566,-3.09781 0.72177,-6.614585 c -0.004,-3.28038 -0.1086,-4.35883 -0.60523,-6.21771 c -1.94319,-7.27321 -7.14214,-12.89121 -15.78114,-17.05315 c -7.78661,-3.75129 -17.5422,-5.87505 -31.617715,-6.88307 c -3.1287,-0.22406 -6.24975,-0.47706 -6.93567,-0.56221 c -1.5457,-0.19189 -4.54948,-1.60634 -5.86597,-2.76223 c -3.5232,-3.09342 -4.62976,-8.36525 -2.61467,-12.45679 c 1.0663,-2.16507 3.18183,-4.21876 5.42603,-5.26742 c 1.35033,-0.63097 2.36387,-0.85087 5.49236,-1.1916 c 10.77773,-1.17384 21.504305,-0.65819 30.319105,1.45753 c 20.02307,4.8059 35.44486,16.64412 43.85131,33.66158 c 5.90767,11.95908 7.16575,23.724575 3.78521,35.399035 c -2.04086,7.04795 -4.45689,11.93863 -8.75243,17.71717 c -8.30961,11.17844 -21.44636,19.28967 -37.71777,23.28866 c -9.01158,2.21475 -19.941625,2.93736 -29.897925,1.97661 z m -8.41456,-47.52164 c -4.10292,-0.38992 -11.37043,-1.72093 -14.77951,-2.70679 c -7.42798,-2.14807 -16.02646,-6.27439 -21.78509,-10.454435 c -2.51073,-1.82247 -6.81639,-5.58432 -8.74959,-7.64451 c -8.18057,-8.71794 -12.79098,-17.86675 -14.15084,-28.08068 c -2.42672,-18.22708 7.1669,-36.76535 25.14939,-48.597543 c 7.95379,-5.2334697 17.78951,-8.8327097 28.97187,-10.6018297 c 2.53891,-0.40167 4.61982,-0.47999003 12.56771,-0.47302 c 14.142849,0.0124 17.522645,0.46916 46.566675,6.29312 c 5.94047,1.1911897 7.18017,1.3699797 7.35997,1.06143 c 0.9184,-1.57602 2.95744,-3.8133 4.32398,-4.7444 c 3.1217,-2.12696 6.43404,-2.86659003 10.03456,-2.24068 c 5.29047,0.9197 9.70703,5.21283 10.83406,10.5312897 c 0.52229,2.46469 0.48164,4.10659 -0.15889,6.41804 c -2.32022,8.372813 -11.33638,12.397273 -19.17512,8.559023 c -1.81595,-0.88919 -4.05001,-2.87797 -5.13867,-4.57451 c -0.65553,-1.02155 -1.03992,-1.35491 -1.68636,-1.46247 C 120.3838,18.065782 102.7949,16.987332 93.099355,18.145612 c -14.62855,1.74759 -27.25743,6.748563 -35.71876,14.144443 c -7.82506,6.83974 -12.83228,16.26281 -12.83228,24.14903 c 0,3.8692 1.49582,9.16273 3.47907,12.31197 c 4.50325,7.15079 11.55773,11.3943 23.25483,13.98858 c 7.27231,1.61291 17.11111,2.95457 25.25672,3.44411 c 5.526375,0.33214 8.392085,1.51133 10.691625,4.39943 c 1.68398,2.11498 2.26915,3.87895 2.27121,6.84648 c 0.002,2.365965 -0.0561,2.631895 -0.98365,4.529285 c -1.24269,2.54206 -3.38092,4.6183 -5.65343,5.48953 c -1.8297,0.70147 -8.315225,1.757 -13.177195,2.1446 c -3.95323,0.31516 -9.28368,0.30107 -12.80792,-0.0339 z" />
  </g>
</svg>
